<svg xmlns="http://www.w3.org/2000/svg" fill="none" viewBox="0 0 18 13">
  <path fill="#aaa" d="M3.58403 12.6722c-.98133 0-1.83467-.3413-2.56-1.024-.682666-.7253-1.024-1.6213-1.024-2.68801 0-2.00533.576001-3.776 1.728-5.312 1.19467-1.57866 2.56-2.77333 4.096-3.583996l.256-.064q.127995 0 .192.127999c.08533.085332.128.170666.128.256 0 .128001-.04267.234668-.128.32-1.57867 1.407997-2.368 2.709337-2.368 3.903997 0 .68267.29867 1.152.896 1.408.68267.34134 1.216.74667 1.6 1.216.42667.46934.64 1.10934.64 1.92 0 .98131-.34133 1.81331-1.024 2.49601-.64.6827-1.45067 1.024-2.432 1.024m10.62397 0c-.9813 0-1.8346-.3413-2.56-1.024-.6826-.7253-1.024-1.6213-1.024-2.68801 0-2.00533.576-3.776 1.728-5.312 1.1947-1.57866 2.56-2.77333 4.096-3.583996l.256-.064q.1281 0 .192.127999c.0854.085332.128.170666.128.256 0 .128001-.0426.234668-.128.32-1.5786 1.407997-2.368 2.709337-2.368 3.903997 0 .68267.2987 1.152.896 1.408.6827.34134 1.216.74667 1.6 1.216.4267.46934.64 1.10934.64 1.92 0 .98131-.3413 1.81331-1.024 2.49601-.64.6827-1.4506 1.024-2.432 1.024"/>
</svg>
