<svg width="21" height="16" viewBox="0 0 21 16" fill="none" xmlns="http://www.w3.org/2000/svg">
<path d="M-2.6226e-06 15.5455V11.4546C-2.6226e-06 10.2121 0.219694 8.89395 0.659088 7.50002C1.11363 6.09092 1.76515 4.73486 2.61363 3.43184C3.47727 2.11365 4.51515 0.969711 5.72727 1.52588e-05L8.63636 2.36365C7.68182 3.72729 6.84848 5.15153 6.13636 6.63638C5.43939 8.10608 5.09091 9.68183 5.09091 11.3637V15.5455H-2.6226e-06ZM11.6364 15.5455V11.4546C11.6364 10.2121 11.8561 8.89395 12.2955 7.50002C12.75 6.09092 13.4015 4.73486 14.25 3.43184C15.1136 2.11365 16.1515 0.969711 17.3636 1.52588e-05L20.2727 2.36365C19.3182 3.72729 18.4848 5.15153 17.7727 6.63638C17.0758 8.10608 16.7273 9.68183 16.7273 11.3637V15.5455H11.6364Z" fill="#9498A0"/>
</svg>
