<?xml version="1.0" encoding="UTF-8"?>
<svg xmlns="http://www.w3.org/2000/svg" width="88" height="88" viewBox="0 0 88 88" fill="none">
  <g filter="url(#filter0_d_799_3868)">
    <g clip-path="url(#clip0_799_3868)">
      <path d="M43.6253 78.3132C62.783 78.3132 78.3134 62.7828 78.3134 43.6251C78.3134 24.4673 62.783 8.93692 43.6253 8.93692C24.4676 8.93692 8.93713 24.4673 8.93713 43.6251C8.93713 62.7828 24.4676 78.3132 43.6253 78.3132Z" fill="#121313"></path>
      <path d="M43.626 8.93698C62.7819 8.93698 78.3141 24.4692 78.3141 43.6251C78.3141 62.781 62.7819 78.3133 43.626 78.3133C24.4701 78.3133 8.93782 62.781 8.93782 43.6251C8.93782 24.4692 24.4701 8.93698 43.626 8.93698ZM43.626 5.72511C36.7474 5.72246 29.9979 7.59203 24.1011 11.1334C18.2042 14.6747 13.3824 19.7542 10.1527 25.8273C6.92292 31.9005 5.40704 38.7381 5.76755 45.6072C6.12806 52.4763 8.35137 59.1177 12.1991 64.8193C14.9284 68.8498 18.4013 72.3227 22.4318 75.052C28.6924 79.2771 36.073 81.5346 43.626 81.5346C51.1789 81.5346 58.5595 79.2771 64.8202 75.052C68.8506 72.3227 72.3236 68.8498 75.0528 64.8193C79.2779 58.5587 81.5354 51.1781 81.5354 43.6251C81.5354 36.0722 79.2779 28.6916 75.0528 22.4309C72.3236 18.4005 68.8506 14.9275 64.8202 12.1983C58.5611 7.97097 51.1788 5.71629 43.626 5.72511Z" fill="#FCFDFD"></path>
      <path d="M14.3925 32.6895L15.9443 37.4615L17.4961 32.6895H19.1376L16.931 39.0312H14.9487L12.7511 32.6895H14.3925ZM21.2595 32.6895V39.0312H19.7256V32.6895H21.2595ZM28.0232 35.8469C28.0232 36.4688 27.8887 37.0219 27.6196 37.5063C27.3565 37.9847 26.9738 38.3584 26.4715 38.6275C25.9751 38.8966 25.3891 39.0312 24.7134 39.0312H22.3185V32.6895H24.7134C25.3951 32.6895 25.9841 32.8211 26.4804 33.0842C26.9768 33.3473 27.3565 33.7181 27.6196 34.1965C27.8887 34.6749 28.0232 35.225 28.0232 35.8469ZM24.5788 37.6588C25.1768 37.6588 25.6403 37.5003 25.9692 37.1834C26.304 36.8665 26.4715 36.421 26.4715 35.8469C26.4715 35.2728 26.304 34.8273 25.9692 34.5104C25.6403 34.1935 25.1768 34.035 24.5788 34.035H23.8523V37.6588H24.5788ZM30.4307 33.9094V35.237H32.5745V36.3941H30.4307V37.8023H32.8436V39.0312H28.8969V32.6895H32.8436V33.9094H30.4307ZM36.7285 32.5909C37.3264 32.5909 37.8676 32.7314 38.352 33.0125C38.8423 33.2875 39.228 33.6732 39.5091 34.1696C39.7901 34.6599 39.9307 35.216 39.9307 35.8379C39.9307 36.4598 39.7871 37.019 39.5001 37.5153C39.2191 38.0116 38.8334 38.4003 38.343 38.6814C37.8586 38.9564 37.3205 39.094 36.7285 39.094C36.1365 39.094 35.5953 38.9564 35.1049 38.6814C34.6206 38.4003 34.2349 38.0116 33.9478 37.5153C33.6668 37.019 33.5263 36.4598 33.5263 35.8379C33.5263 35.216 33.6668 34.6599 33.9478 34.1696C34.2349 33.6732 34.6206 33.2875 35.1049 33.0125C35.5953 32.7314 36.1365 32.5909 36.7285 32.5909ZM36.7285 34.0171C36.2262 34.0171 35.8255 34.1815 35.5265 34.5104C35.2335 34.8333 35.087 35.2758 35.087 35.8379C35.087 36.3941 35.2335 36.8366 35.5265 37.1655C35.8255 37.4944 36.2262 37.6588 36.7285 37.6588C37.2248 37.6588 37.6224 37.4944 37.9214 37.1655C38.2204 36.8366 38.3699 36.3941 38.3699 35.8379C38.3699 35.2818 38.2204 34.8393 37.9214 34.5104C37.6284 34.1815 37.2308 34.0171 36.7285 34.0171Z" fill="#FCFDFD"></path>
      <path d="M14.7424 45.1955V47.42H13.2085V41.0784H15.6932C16.4466 41.0784 17.0207 41.2667 17.4154 41.6435C17.81 42.0142 18.0074 42.5165 18.0074 43.1504C18.0074 43.5451 17.9177 43.8979 17.7383 44.2088C17.5649 44.5138 17.3047 44.756 16.9579 44.9354C16.6111 45.1088 16.1895 45.1955 15.6932 45.1955H14.7424ZM15.5227 43.9666C16.1387 43.9666 16.4466 43.6946 16.4466 43.1504C16.4466 42.5943 16.1387 42.3162 15.5227 42.3162H14.7424V43.9666H15.5227ZM22.0181 47.42L20.6457 45.0251H20.2959V47.42H18.7621V41.0784H21.3813C21.8836 41.0784 22.3081 41.1651 22.655 41.3385C23.0018 41.5119 23.2619 41.7511 23.4353 42.0561C23.6087 42.3551 23.6955 42.6989 23.6955 43.0876C23.6955 43.548 23.5669 43.9397 23.3098 44.2626C23.0586 44.5856 22.6908 44.8068 22.2065 44.9264L23.7134 47.42H22.0181ZM20.2959 43.9756H21.2467C21.5517 43.9756 21.7759 43.9098 21.9194 43.7783C22.063 43.6407 22.1347 43.4404 22.1347 43.1773C22.1347 42.9261 22.06 42.7288 21.9105 42.5853C21.767 42.4418 21.5457 42.37 21.2467 42.37H20.2959V43.9756ZM27.4784 40.9797C28.0764 40.9797 28.6175 41.1202 29.1019 41.4013C29.5923 41.6764 29.978 42.0621 30.259 42.5584C30.5401 43.0487 30.6806 43.6049 30.6806 44.2268C30.6806 44.8487 30.5371 45.4078 30.25 45.9041C29.969 46.4004 29.5833 46.7891 29.0929 47.0702C28.6086 47.3453 28.0704 47.4828 27.4784 47.4828C26.8864 47.4828 26.3452 47.3453 25.8549 47.0702C25.3705 46.7891 24.9848 46.4004 24.6978 45.9041C24.4167 45.4078 24.2762 44.8487 24.2762 44.2268C24.2762 43.6049 24.4167 43.0487 24.6978 42.5584C24.9848 42.0621 25.3705 41.6764 25.8549 41.4013C26.3452 41.1202 26.8864 40.9797 27.4784 40.9797ZM27.4784 42.4059C26.9761 42.4059 26.5754 42.5703 26.2764 42.8992C25.9834 43.2221 25.8369 43.6647 25.8369 44.2268C25.8369 44.7829 25.9834 45.2254 26.2764 45.5543C26.5754 45.8832 26.9761 46.0476 27.4784 46.0476C27.9747 46.0476 28.3724 45.8832 28.6714 45.5543C28.9704 45.2254 29.1199 44.7829 29.1199 44.2268C29.1199 43.6706 28.9704 43.2281 28.6714 42.8992C28.3784 42.5703 27.9807 42.4059 27.4784 42.4059ZM37.247 44.2357C37.247 44.8576 37.1125 45.4108 36.8434 45.8951C36.5803 46.3735 36.1976 46.7473 35.6953 47.0164C35.1989 47.2855 34.6129 47.42 33.9372 47.42H31.5422V41.0784H33.9372C34.6189 41.0784 35.2079 41.2099 35.7042 41.473C36.2005 41.7362 36.5803 42.1069 36.8434 42.5853C37.1125 43.0637 37.247 43.6138 37.247 44.2357ZM33.8026 46.0476C34.4006 46.0476 34.8641 45.8892 35.1929 45.5722C35.5278 45.2553 35.6953 44.8098 35.6953 44.2357C35.6953 43.6617 35.5278 43.2162 35.1929 42.8992C34.8641 42.5823 34.4006 42.4238 33.8026 42.4238H33.0761V46.0476H33.8026ZM39.6096 41.0784V44.738C39.6096 45.1566 39.7023 45.4765 39.8877 45.6978C40.0791 45.9191 40.3541 46.0297 40.7129 46.0297C41.0717 46.0297 41.3438 45.9191 41.5292 45.6978C41.7205 45.4765 41.8162 45.1566 41.8162 44.738V41.0784H43.35V44.738C43.35 45.336 43.2334 45.8413 43.0002 46.2539C42.767 46.6606 42.4471 46.9685 42.0405 47.1778C41.6398 47.3811 41.1853 47.4828 40.677 47.4828C40.1688 47.4828 39.7203 47.3811 39.3316 47.1778C38.9429 46.9745 38.6379 46.6665 38.4167 46.2539C38.1954 45.8413 38.0848 45.336 38.0848 44.738V41.0784H39.6096ZM47.2722 41.0156C48.0795 41.0156 48.7462 41.2279 49.2725 41.6524C49.8047 42.077 50.1485 42.6511 50.304 43.3746H48.6805C48.5609 43.0816 48.3755 42.8514 48.1243 42.684C47.8792 42.5165 47.5861 42.4328 47.2453 42.4328C46.7968 42.4328 46.435 42.5973 46.16 42.9261C45.8849 43.255 45.7473 43.6946 45.7473 44.2447C45.7473 44.7948 45.8849 45.2344 46.16 45.5633C46.435 45.8862 46.7968 46.0476 47.2453 46.0476C47.5861 46.0476 47.8792 45.9639 48.1243 45.7965C48.3755 45.629 48.5609 45.4018 48.6805 45.1148H50.304C50.1485 45.8323 49.8047 46.4064 49.2725 46.837C48.7462 47.2615 48.0795 47.4738 47.2722 47.4738C46.6563 47.4738 46.1151 47.3393 45.6487 47.0702C45.1823 46.7951 44.8205 46.4124 44.5633 45.922C44.3122 45.4317 44.1866 44.8726 44.1866 44.2447C44.1866 43.6168 44.3122 43.0577 44.5633 42.5674C44.8205 42.077 45.1823 41.6973 45.6487 41.4282C46.1151 41.1531 46.6563 41.0156 47.2722 41.0156ZM55.7203 41.0784V42.2983H53.9981V47.42H52.4553V42.2983H50.751V41.0784H55.7203ZM57.9006 41.0784V47.42H56.3668V41.0784H57.9006ZM61.9734 40.9797C62.5714 40.9797 63.1126 41.1202 63.597 41.4013C64.0873 41.6764 64.473 42.0621 64.7541 42.5584C65.0351 43.0487 65.1757 43.6049 65.1757 44.2268C65.1757 44.8487 65.0321 45.4078 64.7451 45.9041C64.464 46.4004 64.0783 46.7891 63.588 47.0702C63.1036 47.3453 62.5654 47.4828 61.9734 47.4828C61.3814 47.4828 60.8403 47.3453 60.3499 47.0702C59.8655 46.7891 59.4798 46.4004 59.1928 45.9041C58.9118 45.4078 58.7712 44.8487 58.7712 44.2268C58.7712 43.6049 58.9118 43.0487 59.1928 42.5584C59.4798 42.0621 59.8655 41.6764 60.3499 41.4013C60.8403 41.1202 61.3814 40.9797 61.9734 40.9797ZM61.9734 42.4059C61.4711 42.4059 61.0705 42.5703 60.7715 42.8992C60.4785 43.2221 60.332 43.6647 60.332 44.2268C60.332 44.7829 60.4785 45.2254 60.7715 45.5543C61.0705 45.8832 61.4711 46.0476 61.9734 46.0476C62.4698 46.0476 62.8674 45.8832 63.1664 45.5543C63.4654 45.2254 63.6149 44.7829 63.6149 44.2268C63.6149 43.6706 63.4654 43.2281 63.1664 42.8992C62.8734 42.5703 62.4758 42.4059 61.9734 42.4059ZM71.6703 47.42H70.1365L67.5711 43.5271V47.42H66.0373V41.0784H67.5711L70.1365 45.0071V41.0784H71.6703V47.42Z" fill="#FCFDFD"></path>
      <path d="M14.7424 50.687V52.0145H16.8861V53.1716H14.7424V54.5799H17.1552V55.8087H13.2085V49.4671H17.1552V50.687H14.7424ZM23.7311 52.6245C23.7311 53.2464 23.5965 53.7995 23.3274 54.2839C23.0643 54.7623 22.6816 55.136 22.1793 55.4051C21.683 55.6742 21.0969 55.8087 20.4212 55.8087H18.0263V49.4671H20.4212C21.1029 49.4671 21.6919 49.5987 22.1883 49.8618C22.6846 50.1249 23.0643 50.4956 23.3274 50.974C23.5965 51.4524 23.7311 52.0026 23.7311 52.6245ZM20.2867 54.4364C20.8846 54.4364 21.3481 54.2779 21.677 53.961C22.0118 53.644 22.1793 53.1985 22.1793 52.6245C22.1793 52.0504 22.0118 51.6049 21.677 51.288C21.3481 50.971 20.8846 50.8126 20.2867 50.8126H19.5601V54.4364H20.2867ZM26.1385 49.4671V55.8087H24.6047V49.4671H26.1385ZM32.8305 55.8087H31.2967L28.7313 51.9159V55.8087H27.1975V49.4671H28.7313L31.2967 53.3959V49.4671H32.8305V55.8087ZM37.693 52.5437C38.0757 52.6334 38.3777 52.8188 38.5989 53.0999C38.8262 53.3809 38.9398 53.7068 38.9398 54.0776C38.9398 54.6217 38.7574 55.0463 38.3926 55.3513C38.0338 55.6562 37.5166 55.8087 36.8409 55.8087H33.8898V49.4671H36.7691C37.4149 49.4671 37.9142 49.6076 38.2671 49.8887C38.6199 50.1697 38.7963 50.5704 38.7963 51.0906C38.7963 51.4733 38.6946 51.7933 38.4913 52.0504C38.288 52.3016 38.0219 52.466 37.693 52.5437ZM35.4236 52.0594H36.4283C36.9605 52.0594 37.2266 51.8321 37.2266 51.3777C37.2266 50.9232 36.9545 50.696 36.4103 50.696H35.4236V52.0594ZM36.5179 54.5619C37.086 54.5619 37.3701 54.3287 37.3701 53.8623C37.3701 53.6351 37.2953 53.4587 37.1458 53.3331C36.9963 53.2015 36.7841 53.1357 36.509 53.1357H35.4236V54.5619H36.5179ZM41.2389 49.4671V53.1268C41.2389 53.5454 41.3316 53.8653 41.517 54.0865C41.7083 54.3078 41.9834 54.4184 42.3422 54.4184C42.701 54.4184 42.9731 54.3078 43.1584 54.0865C43.3498 53.8653 43.4455 53.5454 43.4455 53.1268V49.4671H44.9793V53.1268C44.9793 53.7248 44.8627 54.2301 44.6295 54.6427C44.3963 55.0493 44.0764 55.3573 43.6697 55.5665C43.2691 55.7699 42.8146 55.8715 42.3063 55.8715C41.798 55.8715 41.3495 55.7699 40.9609 55.5665C40.5722 55.3632 40.2672 55.0553 40.0459 54.6427C39.8247 54.2301 39.7141 53.7248 39.7141 53.1268V49.4671H41.2389ZM49.2603 55.8087L47.8879 53.4138H47.5381V55.8087H46.0042V49.4671H48.6234C49.1257 49.4671 49.5503 49.5538 49.8971 49.7272C50.244 49.9006 50.5041 50.1398 50.6775 50.4448C50.8509 50.7438 50.9376 51.0876 50.9376 51.4763C50.9376 51.9368 50.8091 52.3285 50.5519 52.6514C50.3008 52.9743 49.933 53.1955 49.4486 53.3151L50.9556 55.8087H49.2603ZM47.5381 52.3643H48.4889C48.7938 52.3643 49.0181 52.2986 49.1616 52.167C49.3051 52.0295 49.3769 51.8291 49.3769 51.566C49.3769 51.3149 49.3021 51.1175 49.1526 50.974C49.0091 50.8305 48.7879 50.7588 48.4889 50.7588H47.5381V52.3643ZM54.6757 49.4043C55.471 49.4043 56.1258 49.5987 56.6401 49.9874C57.1543 50.376 57.4743 50.9023 57.5998 51.566H55.9763C55.8687 51.3388 55.7042 51.1594 55.483 51.0278C55.2617 50.8903 54.9956 50.8215 54.6847 50.8215C54.2003 50.8215 53.8116 50.986 53.5186 51.3149C53.2256 51.6378 53.0791 52.0773 53.0791 52.6334C53.0791 53.2374 53.2316 53.7008 53.5365 54.0237C53.8475 54.3467 54.287 54.5081 54.8551 54.5081C55.2199 54.5081 55.5398 54.4094 55.8149 54.2121C56.0899 54.0088 56.2843 53.7218 56.3979 53.351H54.4604V52.2477H57.6806V53.7636C57.561 54.1344 57.3696 54.4782 57.1065 54.7951C56.8434 55.1121 56.5055 55.3692 56.0929 55.5665C55.6863 55.7639 55.2199 55.8625 54.6936 55.8625C54.0538 55.8625 53.4947 55.728 53.0163 55.4589C52.5379 55.1838 52.1672 54.8011 51.904 54.3108C51.6469 53.8204 51.5183 53.2613 51.5183 52.6334C51.5183 52.0055 51.6469 51.4464 51.904 50.9561C52.1672 50.4657 52.5349 50.086 53.0073 49.8169C53.4857 49.5419 54.0418 49.4043 54.6757 49.4043ZM64.0197 49.4671V55.8087H62.4769V53.1626H60.073V55.8087H58.5391V49.4671H60.073V51.9248H62.4769V49.4671H64.0197Z" fill="#FCFDFD"></path>
    </g>
  </g>
  <defs>
    <filter id="filter0_d_799_3868" x="1.52588e-05" y="0" width="87.2502" height="87.2502" filterUnits="userSpaceOnUse" color-interpolation-filters="sRGB">
      <feFlood flood-opacity="0" result="BackgroundImageFix"></feFlood>
      <feColorMatrix in="SourceAlpha" type="matrix" values="0 0 0 0 0 0 0 0 0 0 0 0 0 0 0 0 0 0 127 0" result="hardAlpha"></feColorMatrix>
      <feOffset></feOffset>
      <feGaussianBlur stdDeviation="2.86254"></feGaussianBlur>
      <feColorMatrix type="matrix" values="0 0 0 0 0 0 0 0 0 0 0 0 0 0 0 0 0 0 0.38 0"></feColorMatrix>
      <feBlend mode="normal" in2="BackgroundImageFix" result="effect1_dropShadow_799_3868"></feBlend>
      <feBlend mode="normal" in="SourceGraphic" in2="effect1_dropShadow_799_3868" result="shape"></feBlend>
    </filter>
    <clipPath id="clip0_799_3868">
      <rect width="75.8" height="75.8" fill="white" transform="translate(5.7251 5.72508)"></rect>
    </clipPath>
  </defs>
</svg>
